# Blender v2.82 (sub 7) OBJ File: 'MED ROCK FIXrock.blend'
# www.blender.org
mtllib med rock.mtl
o Cube
v 0.340213 0.902801 -0.263026
v 0.374285 -0.634016 -0.329369
v 0.397531 0.383636 0.217461
v 0.374285 -0.639919 0.515957
v 0.374286 0.408919 -0.000000
v 0.368382 -0.639919 0.000000
v 0.337588 -0.672126 -0.200585
v 0.526731 -0.478140 0.442667
v 0.425431 -0.554879 -0.000000
v 0.262548 -0.632281 -0.421509
v 0.152610 1.300049 0.333151
v 0.262548 -0.638184 0.515957
v 0.123791 1.319556 -0.291255
v 0.256645 -0.638184 0.000000
v 0.312707 1.309645 0.012635
v 0.343502 -0.420907 -0.476943
v 0.343502 -0.509451 0.527763
v 0.566132 -0.193599 -0.468733
v 0.472440 -0.229016 0.429168
v 0.566132 -0.140472 -0.000000
v 0.155982 0.149004 -0.543757
v 0.245838 -0.187134 0.437596
v -0.340213 0.902801 -0.263026
v -0.374285 -0.634016 -0.329369
v -0.397531 0.383636 0.217461
v -0.374285 -0.639919 0.515957
v 0.000000 1.310984 -0.282344
v 0.000000 -0.628113 -0.329369
v 0.000000 1.308917 0.286748
v 0.000000 -0.634016 0.515957
v 0.000000 -0.634016 0.000000
v -0.374286 0.408919 -0.000000
v 0.000000 1.312296 -0.006487
v -0.368382 -0.639919 0.000000
v -0.337588 -0.672126 -0.200585
v 0.000000 -0.106168 0.437596
v -0.526731 -0.478140 0.442667
v 0.000000 0.188649 -0.634141
v -0.425431 -0.554879 -0.000000
v 0.000000 0.000000 0.000000
v -0.262548 -0.632281 -0.421509
v -0.152610 1.300049 0.333151
v -0.262548 -0.638184 0.515957
v -0.123791 1.319556 -0.291255
v -0.256645 -0.638184 0.000000
v -0.312707 1.309645 0.012635
v -0.343502 -0.420907 -0.476943
v -0.343502 -0.509451 0.527763
v 0.000000 0.092695 0.380188
v -0.566132 -0.193599 -0.468733
v -0.472440 -0.229016 0.429168
v 0.000000 0.363986 -0.634141
v -0.566132 -0.140472 -0.000000
v 0.000000 0.175337 -0.000000
v -0.155982 0.149004 -0.543757
v -0.245838 -0.187134 0.437596
vt 0.698499 0.625000
vt 0.875000 0.625000
vt 0.875000 0.750000
vt 0.698499 0.750000
vt 0.562500 0.823499
vt 0.625000 0.823499
vt 0.625000 1.000000
vt 0.562500 1.000000
vt 0.301501 0.625000
vt 0.375000 0.625000
vt 0.375000 0.750000
vt 0.301501 0.750000
vt 0.562500 0.625000
vt 0.625000 0.625000
vt 0.625000 0.750000
vt 0.562500 0.750000
vt 0.562500 0.426501
vt 0.625000 0.426501
vt 0.625000 0.500000
vt 0.562500 0.500000
vt 0.301501 0.500000
vt 0.375000 0.500000
vt 0.698499 0.500000
vt 0.875000 0.500000
vt 0.500000 0.500000
vt 0.500000 0.625000
vt 0.375000 0.426501
vt 0.500000 0.426501
vt 0.500000 0.750000
vt 0.375000 0.823499
vt 0.500000 0.823499
vt 0.500000 1.000000
vt 0.375000 1.000000
vt 0.375000 0.250000
vt 0.500000 0.250000
vt 0.125000 0.500000
vt 0.125000 0.625000
vt 0.562500 0.250000
vt 0.625000 0.250000
vt 0.125000 0.750000
vt 0.698499 0.625000
vt 0.698499 0.750000
vt 0.562500 0.823499
vt 0.625000 0.823499
vt 0.562500 0.125000
vt 0.625000 0.125000
vt 0.301501 0.625000
vt 0.301501 0.750000
vt 0.375000 0.750000
vt 0.375000 0.625000
vt 0.562500 0.625000
vt 0.562500 0.750000
vt 0.625000 0.750000
vt 0.625000 0.625000
vt 0.562500 0.426501
vt 0.562500 0.500000
vt 0.625000 0.500000
vt 0.625000 0.426501
vt 0.301501 0.500000
vt 0.375000 0.500000
vt 0.562500 0.000000
vt 0.625000 0.000000
vt 0.698499 0.500000
vt 0.375000 0.000000
vt 0.375000 0.125000
vt 0.500000 0.125000
vt 0.500000 0.000000
vt 0.500000 0.625000
vt 0.500000 0.500000
vt 0.375000 0.426501
vt 0.500000 0.426501
vt 0.500000 0.750000
vt 0.375000 0.823499
vt 0.500000 0.823499
vn 0.0210 0.9994 0.0266
vn -0.2077 0.0643 0.9761
vn -0.0155 -0.9999 0.0002
vn 0.9577 0.2468 0.1478
vn 0.4183 0.2255 -0.8799
vn 0.9676 0.2337 0.0957
vn -0.0090 -0.9998 -0.0159
vn -0.0140 0.9997 0.0194
vn 0.9887 -0.0218 -0.1483
vn 0.9369 -0.0972 -0.3358
vn 0.7572 -0.6523 -0.0325
vn -0.0738 0.1096 0.9912
vn 0.2791 -0.0210 0.9600
vn -0.2125 -0.3081 -0.9273
vn 0.9593 0.2000 -0.1995
vn -0.0189 -0.9997 -0.0159
vn 0.4378 0.2529 -0.8628
vn -0.0161 -0.9999 0.0001
vn 0.5543 0.1671 0.8153
vn 0.9568 0.1435 0.2527
vn 0.2221 0.2309 0.9473
vn 0.5105 0.0515 -0.8584
vn 0.9215 -0.3877 -0.0222
vn 0.3376 -0.2984 -0.8927
vn 0.9915 -0.1293 -0.0104
vn 0.0947 0.2876 0.9531
vn -0.0210 0.9994 0.0266
vn 0.2077 0.0643 0.9761
vn 1.0000 0.0000 0.0000
vn 0.0155 -0.9999 0.0002
vn -0.9577 0.2468 0.1478
vn -0.4183 0.2255 -0.8799
vn -0.9676 0.2337 0.0957
vn 0.0090 -0.9998 -0.0159
vn 0.0140 0.9997 0.0194
vn -0.9887 -0.0218 -0.1483
vn -0.9369 -0.0972 -0.3358
vn -0.7572 -0.6523 -0.0325
vn 0.0738 0.1096 0.9912
vn -0.2791 -0.0210 0.9600
vn 0.2125 -0.3081 -0.9273
vn -0.9593 0.2000 -0.1995
vn 0.0189 -0.9997 -0.0159
vn -0.4378 0.2529 -0.8628
vn 0.0161 -0.9999 0.0001
vn -0.5543 0.1671 0.8153
vn -0.9568 0.1435 0.2527
vn -0.2221 0.2309 0.9473
vn -0.5105 0.0515 -0.8584
vn -0.9215 -0.3877 -0.0222
vn -0.3376 -0.2984 -0.8927
vn -0.9915 -0.1293 -0.0104
vn -0.0947 0.2876 0.9531
usemtl Material
s off
f 15/1/1 33/2/1 29/3/1 11/4/1
f 22/5/2 11/6/2 29/7/2 49/8/2
f 14/9/3 6/10/3 4/11/3 12/12/3
f 20/13/4 5/14/4 3/15/4 19/16/4
f 21/17/5 13/18/5 1/19/5 18/20/5
f 18/20/6 1/19/6 5/14/6 20/13/6
f 10/21/7 2/22/7 6/10/7 14/9/7
f 13/23/8 27/24/8 33/2/8 15/1/8
f 2/22/9 7/25/9 9/26/9 6/10/9
f 10/27/10 16/28/10 7/25/10 2/22/10
f 6/10/11 9/26/11 8/29/11 4/11/11
f 12/30/12 17/31/12 36/32/12 30/33/12
f 4/11/13 8/29/13 17/31/13 12/30/13
f 28/34/14 38/35/14 16/28/14 10/27/14
f 1/19/15 13/23/15 15/1/15 5/14/15
f 28/36/16 10/21/16 14/9/16 31/37/16
f 52/38/17 27/39/17 13/18/17 21/17/17
f 31/37/18 14/9/18 12/12/18 30/40/18
f 19/16/19 3/15/19 11/6/19 22/5/19
f 5/14/20 15/1/20 11/4/20 3/15/20
f 8/29/21 19/16/21 22/5/21 17/31/21
f 38/35/22 52/38/22 21/17/22 16/28/22
f 7/25/23 18/20/23 20/13/23 9/26/23
f 16/28/24 21/17/24 18/20/24 7/25/24
f 9/26/25 20/13/25 19/16/25 8/29/25
f 17/31/26 22/5/26 49/8/26 36/32/26
f 46/41/27 42/42/27 29/3/27 33/2/27
f 56/43/28 49/8/28 29/7/28 42/44/28
f 54/45/29 52/38/29 27/39/29 33/46/29
f 45/47/30 43/48/30 26/49/30 34/50/30
f 53/51/31 51/52/31 25/53/31 32/54/31
f 55/55/32 50/56/32 23/57/32 44/58/32
f 50/56/33 53/51/33 32/54/33 23/57/33
f 41/59/34 45/47/34 34/50/34 24/60/34
f 49/61/29 54/45/29 33/46/29 29/62/29
f 44/63/35 46/41/35 33/2/35 27/24/35
f 30/64/29 31/65/29 40/66/29 36/67/29
f 24/60/36 34/50/36 39/68/36 35/69/36
f 41/70/37 24/60/37 35/69/37 47/71/37
f 34/50/38 26/49/38 37/72/38 39/68/38
f 31/65/29 28/34/29 38/35/29 40/66/29
f 43/73/39 30/33/39 36/32/39 48/74/39
f 26/49/40 43/73/40 48/74/40 37/72/40
f 28/34/41 41/70/41 47/71/41 38/35/41
f 23/57/42 32/54/42 46/41/42 44/63/42
f 28/36/43 31/37/43 45/47/43 41/59/43
f 52/38/44 55/55/44 44/58/44 27/39/44
f 31/37/45 30/40/45 43/48/45 45/47/45
f 51/52/46 56/43/46 42/44/46 25/53/46
f 32/54/47 25/53/47 42/42/47 46/41/47
f 37/72/48 48/74/48 56/43/48 51/52/48
f 38/35/49 47/71/49 55/55/49 52/38/49
f 36/67/29 40/66/29 54/45/29 49/61/29
f 35/69/50 39/68/50 53/51/50 50/56/50
f 47/71/51 35/69/51 50/56/51 55/55/51
f 39/68/52 37/72/52 51/52/52 53/51/52
f 40/66/29 38/35/29 52/38/29 54/45/29
f 48/74/53 36/32/53 49/8/53 56/43/53
